# xmcd
#
# Track frame offsets:
#	150
#	16910
#	32025
#	43894
#	64515
#	79543
#	88966
#	107617
#	117662
#	134735
#	150027
#
# Disc length: 2230 seconds
#
# Revision: 0
# Processed by: cddbd v1.5.2PL0 Copyright (c) Steve Scherf et al.
# Submitted via: VUPlayer 2.49
#
DISCID=8808b40b
DTITLE=George Davies - Man Of Straw
DYEAR=2011
DGENRE=Blues
TTITLE0=Serenity
TTITLE1=Shadows
TTITLE2=Boujelais
TTITLE3=Black Dog
TTITLE4=Man Of Straw
TTITLE5=Bird Cage
TTITLE6=Essence Of Life
TTITLE7=Syndicate Road
TTITLE8=Nailed To The Floor
TTITLE9=Angel Wings
TTITLE10=Bitter End
EXTD=
EXTT0=
EXTT1=
EXTT2=
EXTT3=
EXTT4=
EXTT5=
EXTT6=
EXTT7=
EXTT8=
EXTT9=
EXTT10=
PLAYORDER=
